{
	"patcher" : 	{
		"fileversion" : 1,
		"appversion" : 		{
			"major" : 8,
			"minor" : 1,
			"revision" : 8,
			"architecture" : "x64",
			"modernui" : 1
		}
,
		"classnamespace" : "box",
		"rect" : [ 375.0, 87.0, 852.0, 604.0 ],
		"bglocked" : 0,
		"openinpresentation" : 0,
		"default_fontsize" : 12.0,
		"default_fontface" : 0,
		"default_fontname" : "Arial",
		"gridonopen" : 1,
		"gridsize" : [ 15.0, 15.0 ],
		"gridsnaponopen" : 1,
		"objectsnaponopen" : 1,
		"statusbarvisible" : 2,
		"toolbarvisible" : 1,
		"lefttoolbarpinned" : 0,
		"toptoolbarpinned" : 0,
		"righttoolbarpinned" : 0,
		"bottomtoolbarpinned" : 0,
		"toolbars_unpinned_last_save" : 0,
		"tallnewobj" : 0,
		"boxanimatetime" : 200,
		"enablehscroll" : 1,
		"enablevscroll" : 1,
		"devicewidth" : 0.0,
		"description" : "",
		"digest" : "",
		"tags" : "",
		"style" : "",
		"subpatcher_template" : "",
		"assistshowspatchername" : 0,
		"boxes" : [ 			{
				"box" : 				{
					"id" : "obj-4",
					"maxclass" : "newobj",
					"numinlets" : 2,
					"numoutlets" : 0,
					"patching_rect" : [ 635.0, 418.0, 68.0, 22.0 ],
					"text" : "dac~ 31 32"
				}

			}
, 			{
				"box" : 				{
					"id" : "obj-1",
					"maxclass" : "newobj",
					"numinlets" : 0,
					"numoutlets" : 1,
					"outlettype" : [ "signal" ],
					"patching_rect" : [ 635.0, 380.0, 43.0, 22.0 ],
					"text" : "r~ rt.in"
				}

			}
, 			{
				"box" : 				{
					"basictuning" : 440,
					"clipheight" : 20.0,
					"data" : 					{
						"clips" : [ 							{
								"absolutepath" : "Macintosh HD:/Users/james/Cloud/Projects/RefractedTouch/other/concatenative_synth/Paperclip-glued-01.wav",
								"filename" : "Paperclip-glued-01.wav",
								"filekind" : "audiofile",
								"id" : "u863004573",
								"loop" : 0,
								"content_state" : 								{

								}

							}
, 							{
								"absolutepath" : "Macintosh HD:/Users/james/Cloud/Projects/RefractedTouch/other/concatenative_synth/Paperclip-glued-02.wav",
								"filename" : "Paperclip-glued-02.wav",
								"filekind" : "audiofile",
								"id" : "u023004576",
								"loop" : 0,
								"content_state" : 								{

								}

							}
, 							{
								"absolutepath" : "Macintosh HD:/Users/james/Cloud/Projects/RefractedTouch/other/concatenative_synth/Paperclip-glued-03.wav",
								"filename" : "Paperclip-glued-03.wav",
								"filekind" : "audiofile",
								"id" : "u586004579",
								"loop" : 0,
								"content_state" : 								{

								}

							}
, 							{
								"absolutepath" : "Macintosh HD:/Users/james/Cloud/Projects/RefractedTouch/other/concatenative_synth/Paperclip-glued-04.wav",
								"filename" : "Paperclip-glued-04.wav",
								"filekind" : "audiofile",
								"id" : "u086004582",
								"loop" : 0,
								"content_state" : 								{

								}

							}
, 							{
								"absolutepath" : "Macintosh HD:/Users/james/Cloud/Projects/RefractedTouch/other/concatenative_synth/Paperclip-glued-05.wav",
								"filename" : "Paperclip-glued-05.wav",
								"filekind" : "audiofile",
								"id" : "u345004585",
								"loop" : 0,
								"content_state" : 								{

								}

							}
, 							{
								"absolutepath" : "Macintosh HD:/Users/james/Cloud/Projects/RefractedTouch/other/concatenative_synth/Paperclip-glued-06.wav",
								"filename" : "Paperclip-glued-06.wav",
								"filekind" : "audiofile",
								"id" : "u862004588",
								"loop" : 0,
								"content_state" : 								{

								}

							}
, 							{
								"absolutepath" : "Macintosh HD:/Users/james/Cloud/Projects/RefractedTouch/other/concatenative_synth/Paperclip-glued.wav",
								"filename" : "Paperclip-glued.wav",
								"filekind" : "audiofile",
								"id" : "u160004591",
								"loop" : 0,
								"content_state" : 								{

								}

							}
, 							{
								"absolutepath" : "Macintosh HD:/Users/james/Cloud/Projects/RefractedTouch/other/concatenative_synth/Paperclip.wav",
								"filename" : "Paperclip.wav",
								"filekind" : "audiofile",
								"id" : "u550004594",
								"loop" : 0,
								"content_state" : 								{

								}

							}
, 							{
								"absolutepath" : "Macintosh HD:/Users/james/Cloud/Projects/RefractedTouch/other/concatenative_synth/Paperclips_2-glued-01.wav",
								"filename" : "Paperclips_2-glued-01.wav",
								"filekind" : "audiofile",
								"id" : "u419004597",
								"loop" : 0,
								"content_state" : 								{

								}

							}
, 							{
								"absolutepath" : "Macintosh HD:/Users/james/Cloud/Projects/RefractedTouch/other/concatenative_synth/Paperclips_2-glued.wav",
								"filename" : "Paperclips_2-glued.wav",
								"filekind" : "audiofile",
								"id" : "u651004600",
								"loop" : 0,
								"content_state" : 								{

								}

							}
, 							{
								"absolutepath" : "Macintosh HD:/Users/james/Cloud/Projects/RefractedTouch/other/concatenative_synth/Paperclips_2.wav",
								"filename" : "Paperclips_2.wav",
								"filekind" : "audiofile",
								"id" : "u656004603",
								"loop" : 0,
								"content_state" : 								{

								}

							}
, 							{
								"absolutepath" : "Macintosh HD:/Users/james/Cloud/Projects/RefractedTouch/other/concatenative_synth/Pick_Behind_Bridge_2.wav",
								"filename" : "Pick_Behind_Bridge_2.wav",
								"filekind" : "audiofile",
								"id" : "u691004606",
								"loop" : 0,
								"content_state" : 								{

								}

							}
, 							{
								"absolutepath" : "Macintosh HD:/Users/james/Cloud/Projects/RefractedTouch/other/concatenative_synth/Pick_Behind_Bridge.wav",
								"filename" : "Pick_Behind_Bridge.wav",
								"filekind" : "audiofile",
								"id" : "u961004609",
								"loop" : 0,
								"content_state" : 								{

								}

							}
, 							{
								"absolutepath" : "Macintosh HD:/Users/james/Cloud/Projects/RefractedTouch/other/concatenative_synth/Slide_Scrape.wav",
								"filename" : "Slide_Scrape.wav",
								"filekind" : "audiofile",
								"id" : "u108004612",
								"loop" : 0,
								"content_state" : 								{

								}

							}
, 							{
								"absolutepath" : "Macintosh HD:/Users/james/Cloud/Projects/RefractedTouch/other/concatenative_synth/Slide_tap.wav",
								"filename" : "Slide_tap.wav",
								"filekind" : "audiofile",
								"id" : "u034004615",
								"loop" : 1,
								"content_state" : 								{
									"loop" : 1
								}

							}
, 							{
								"absolutepath" : "Macintosh HD:/Users/james/Cloud/Projects/RefractedTouch/other/concatenative_synth/Various_tapping-glued-01.wav",
								"filename" : "Various_tapping-glued-01.wav",
								"filekind" : "audiofile",
								"id" : "u055004618",
								"loop" : 0,
								"content_state" : 								{

								}

							}
, 							{
								"absolutepath" : "Macintosh HD:/Users/james/Cloud/Projects/RefractedTouch/other/concatenative_synth/Various_tapping-glued.wav",
								"filename" : "Various_tapping-glued.wav",
								"filekind" : "audiofile",
								"id" : "u629004621",
								"loop" : 0,
								"content_state" : 								{

								}

							}
, 							{
								"absolutepath" : "Macintosh HD:/Users/james/Cloud/Projects/RefractedTouch/other/concatenative_synth/Various_tapping.wav",
								"filename" : "Various_tapping.wav",
								"filekind" : "audiofile",
								"id" : "u361004624",
								"loop" : 0,
								"content_state" : 								{

								}

							}
, 							{
								"absolutepath" : "Macintosh HD:/Users/james/Cloud/Projects/RefractedTouch/other/concatenative_synth/ZigZag.wav",
								"filename" : "ZigZag.wav",
								"filekind" : "audiofile",
								"id" : "u376004627",
								"loop" : 0,
								"content_state" : 								{

								}

							}
 ]
					}
,
					"followglobaltempo" : 0,
					"formantcorrection" : 0,
					"id" : "obj-32",
					"maxclass" : "playlist~",
					"mode" : "basic",
					"numinlets" : 1,
					"numoutlets" : 5,
					"originallength" : [ 0.0, "ticks" ],
					"originaltempo" : 120.0,
					"outlettype" : [ "signal", "signal", "signal", "", "dictionary" ],
					"parameter_enable" : 0,
					"patching_rect" : [ 639.315780401229858, 30.0, 161.0, 240.0 ],
					"pitchcorrection" : 0,
					"quality" : "basic",
					"timestretch" : [ 0 ]
				}

			}
, 			{
				"box" : 				{
					"id" : "obj-169",
					"maxclass" : "newobj",
					"numinlets" : 0,
					"numoutlets" : 1,
					"outlettype" : [ "" ],
					"patching_rect" : [ 406.0, 249.5, 83.0, 22.0 ],
					"text" : "r rt.state.gmm"
				}

			}
, 			{
				"box" : 				{
					"id" : "obj-73",
					"maxclass" : "newobj",
					"numinlets" : 5,
					"numoutlets" : 3,
					"outlettype" : [ "", "", "" ],
					"patcher" : 					{
						"fileversion" : 1,
						"appversion" : 						{
							"major" : 8,
							"minor" : 1,
							"revision" : 8,
							"architecture" : "x64",
							"modernui" : 1
						}
,
						"classnamespace" : "box",
						"rect" : [ 922.0, 440.0, 1230.0, 644.0 ],
						"bglocked" : 0,
						"openinpresentation" : 0,
						"default_fontsize" : 12.0,
						"default_fontface" : 0,
						"default_fontname" : "Arial",
						"gridonopen" : 1,
						"gridsize" : [ 15.0, 15.0 ],
						"gridsnaponopen" : 1,
						"objectsnaponopen" : 1,
						"statusbarvisible" : 2,
						"toolbarvisible" : 0,
						"lefttoolbarpinned" : 0,
						"toptoolbarpinned" : 0,
						"righttoolbarpinned" : 0,
						"bottomtoolbarpinned" : 0,
						"toolbars_unpinned_last_save" : 0,
						"tallnewobj" : 0,
						"boxanimatetime" : 200,
						"enablehscroll" : 1,
						"enablevscroll" : 1,
						"devicewidth" : 0.0,
						"description" : "",
						"digest" : "",
						"tags" : "",
						"style" : "",
						"subpatcher_template" : "nobars",
						"assistshowspatchername" : 0,
						"boxes" : [ 							{
								"box" : 								{
									"id" : "obj-55",
									"maxclass" : "newobj",
									"numinlets" : 1,
									"numoutlets" : 3,
									"outlettype" : [ "int", "bang", "" ],
									"patching_rect" : [ 493.0, 139.0, 40.0, 22.0 ],
									"text" : "t 1 b l"
								}

							}
, 							{
								"box" : 								{
									"id" : "obj-52",
									"maxclass" : "newobj",
									"numinlets" : 1,
									"numoutlets" : 1,
									"outlettype" : [ "" ],
									"patching_rect" : [ 422.0, 263.5, 158.0, 22.0 ],
									"text" : "sprintf set active buffer is %i"
								}

							}
, 							{
								"box" : 								{
									"id" : "obj-51",
									"maxclass" : "newobj",
									"numinlets" : 1,
									"numoutlets" : 1,
									"outlettype" : [ "" ],
									"patcher" : 									{
										"fileversion" : 1,
										"appversion" : 										{
											"major" : 8,
											"minor" : 1,
											"revision" : 8,
											"architecture" : "x64",
											"modernui" : 1
										}
,
										"classnamespace" : "box",
										"rect" : [ 59.0, 104.0, 640.0, 480.0 ],
										"bglocked" : 0,
										"openinpresentation" : 0,
										"default_fontsize" : 12.0,
										"default_fontface" : 0,
										"default_fontname" : "Arial",
										"gridonopen" : 1,
										"gridsize" : [ 15.0, 15.0 ],
										"gridsnaponopen" : 1,
										"objectsnaponopen" : 1,
										"statusbarvisible" : 2,
										"toolbarvisible" : 0,
										"lefttoolbarpinned" : 0,
										"toptoolbarpinned" : 0,
										"righttoolbarpinned" : 0,
										"bottomtoolbarpinned" : 0,
										"toolbars_unpinned_last_save" : 0,
										"tallnewobj" : 0,
										"boxanimatetime" : 200,
										"enablehscroll" : 1,
										"enablevscroll" : 1,
										"devicewidth" : 0.0,
										"description" : "",
										"digest" : "",
										"tags" : "",
										"style" : "",
										"subpatcher_template" : "nobars",
										"assistshowspatchername" : 0,
										"boxes" : [ 											{
												"box" : 												{
													"comment" : "",
													"id" : "obj-1",
													"index" : 1,
													"maxclass" : "inlet",
													"numinlets" : 0,
													"numoutlets" : 1,
													"outlettype" : [ "bang" ],
													"patching_rect" : [ 50.0, 23.0, 30.0, 30.0 ]
												}

											}
, 											{
												"box" : 												{
													"id" : "obj-46",
													"maxclass" : "newobj",
													"numinlets" : 1,
													"numoutlets" : 1,
													"outlettype" : [ "" ],
													"patching_rect" : [ 50.0, 241.25, 120.0, 22.0 ],
													"text" : "sprintf set %i buffers."
												}

											}
, 											{
												"box" : 												{
													"id" : "obj-41",
													"maxclass" : "newobj",
													"numinlets" : 2,
													"numoutlets" : 2,
													"outlettype" : [ "", "" ],
													"patching_rect" : [ 50.0, 194.25, 99.0, 22.0 ],
													"text" : "route numbuffers"
												}

											}
, 											{
												"box" : 												{
													"id" : "obj-12",
													"maxclass" : "newobj",
													"numinlets" : 1,
													"numoutlets" : 1,
													"outlettype" : [ "" ],
													"patching_rect" : [ 50.0, 100.0, 92.0, 22.0 ],
													"text" : "t getnumbuffers"
												}

											}
, 											{
												"box" : 												{
													"id" : "obj-5",
													"maxclass" : "newobj",
													"numinlets" : 1,
													"numoutlets" : 1,
													"outlettype" : [ "" ],
													"patching_rect" : [ 50.0, 147.25, 133.0, 22.0 ],
													"saved_object_attributes" : 													{
														"embed" : 0,
														"externalfiles" : 1,
														"parameter_enable" : 0,
														"parameter_mappable" : 0,
														"resamplefiles" : 0,
														"savegui" : 0,
														"snaprate" : 1000.0,
														"verbose" : 1
													}
,
													"text" : "mubu state_recognition"
												}

											}
, 											{
												"box" : 												{
													"comment" : "",
													"id" : "obj-50",
													"index" : 1,
													"maxclass" : "outlet",
													"numinlets" : 1,
													"numoutlets" : 0,
													"patching_rect" : [ 50.0, 288.25, 30.0, 30.0 ]
												}

											}
 ],
										"lines" : [ 											{
												"patchline" : 												{
													"destination" : [ "obj-12", 0 ],
													"source" : [ "obj-1", 0 ]
												}

											}
, 											{
												"patchline" : 												{
													"destination" : [ "obj-5", 0 ],
													"source" : [ "obj-12", 0 ]
												}

											}
, 											{
												"patchline" : 												{
													"destination" : [ "obj-46", 0 ],
													"source" : [ "obj-41", 0 ]
												}

											}
, 											{
												"patchline" : 												{
													"destination" : [ "obj-50", 0 ],
													"source" : [ "obj-46", 0 ]
												}

											}
, 											{
												"patchline" : 												{
													"destination" : [ "obj-41", 0 ],
													"source" : [ "obj-5", 0 ]
												}

											}
 ]
									}
,
									"patching_rect" : [ 304.0, 263.5, 78.0, 22.0 ],
									"saved_object_attributes" : 									{
										"description" : "",
										"digest" : "",
										"globalpatchername" : "",
										"tags" : ""
									}
,
									"text" : "p numbuffers"
								}

							}
, 							{
								"box" : 								{
									"id" : "obj-10",
									"maxclass" : "newobj",
									"numinlets" : 1,
									"numoutlets" : 1,
									"outlettype" : [ "" ],
									"patching_rect" : [ 558.0, 217.5, 133.0, 22.0 ],
									"saved_object_attributes" : 									{
										"embed" : 0,
										"externalfiles" : 1,
										"parameter_enable" : 0,
										"parameter_mappable" : 0,
										"resamplefiles" : 0,
										"savegui" : 0,
										"snaprate" : 1000.0,
										"verbose" : 1
									}
,
									"text" : "mubu state_recognition"
								}

							}
, 							{
								"box" : 								{
									"fontname" : "Arial",
									"fontsize" : 12.0,
									"id" : "obj-26",
									"maxclass" : "newobj",
									"numinlets" : 1,
									"numoutlets" : 2,
									"outlettype" : [ "", "" ],
									"patcher" : 									{
										"fileversion" : 1,
										"appversion" : 										{
											"major" : 8,
											"minor" : 1,
											"revision" : 8,
											"architecture" : "x64",
											"modernui" : 1
										}
,
										"classnamespace" : "box",
										"rect" : [ 150.0, 310.0, 1630.0, 871.0 ],
										"bglocked" : 0,
										"openinpresentation" : 0,
										"default_fontsize" : 11.0,
										"default_fontface" : 0,
										"default_fontname" : "Arial",
										"gridonopen" : 1,
										"gridsize" : [ 15.0, 15.0 ],
										"gridsnaponopen" : 1,
										"objectsnaponopen" : 1,
										"statusbarvisible" : 2,
										"toolbarvisible" : 1,
										"lefttoolbarpinned" : 0,
										"toptoolbarpinned" : 0,
										"righttoolbarpinned" : 0,
										"bottomtoolbarpinned" : 0,
										"toolbars_unpinned_last_save" : 0,
										"tallnewobj" : 0,
										"boxanimatetime" : 200,
										"enablehscroll" : 1,
										"enablevscroll" : 1,
										"devicewidth" : 0.0,
										"description" : "",
										"digest" : "",
										"tags" : "",
										"style" : "",
										"subpatcher_template" : "",
										"assistshowspatchername" : 0,
										"boxes" : [ 											{
												"box" : 												{
													"comment" : "",
													"id" : "obj-8",
													"index" : 2,
													"maxclass" : "outlet",
													"numinlets" : 1,
													"numoutlets" : 0,
													"patching_rect" : [ 237.0, 258.0, 30.0, 30.0 ]
												}

											}
, 											{
												"box" : 												{
													"id" : "obj-7",
													"maxclass" : "newobj",
													"numinlets" : 1,
													"numoutlets" : 1,
													"outlettype" : [ "" ],
													"patching_rect" : [ 50.0, 225.0, 158.0, 21.0 ],
													"text" : "prepend bufferindex"
												}

											}
, 											{
												"box" : 												{
													"comment" : "",
													"id" : "obj-6",
													"index" : 1,
													"maxclass" : "outlet",
													"numinlets" : 1,
													"numoutlets" : 0,
													"patching_rect" : [ 50.0, 258.0, 30.0, 30.0 ]
												}

											}
, 											{
												"box" : 												{
													"fontname" : "Arial",
													"fontsize" : 11.0,
													"id" : "obj-5",
													"maxclass" : "newobj",
													"numinlets" : 2,
													"numoutlets" : 2,
													"outlettype" : [ "", "" ],
													"patching_rect" : [ 50.0, 195.333327999999995, 93.0, 21.0 ],
													"text" : "route numbuffers"
												}

											}
, 											{
												"box" : 												{
													"fontname" : "Arial",
													"fontsize" : 11.0,
													"id" : "obj-4",
													"maxclass" : "newobj",
													"numinlets" : 1,
													"numoutlets" : 1,
													"outlettype" : [ "" ],
													"patching_rect" : [ 50.0, 167.333328247070312, 123.0, 21.0 ],
													"saved_object_attributes" : 													{
														"embed" : 0,
														"externalfiles" : 1,
														"parameter_enable" : 0,
														"parameter_mappable" : 0,
														"resamplefiles" : 0,
														"savegui" : 0,
														"snaprate" : 1000.0,
														"verbose" : 1
													}
,
													"text" : "mubu state_recognition"
												}

											}
, 											{
												"box" : 												{
													"fontname" : "Arial",
													"fontsize" : 11.0,
													"id" : "obj-3",
													"maxclass" : "message",
													"numinlets" : 2,
													"numoutlets" : 1,
													"outlettype" : [ "" ],
													"patching_rect" : [ 50.0, 139.333344000000011, 82.0, 21.0 ],
													"text" : "getnumbuffers"
												}

											}
, 											{
												"box" : 												{
													"fontname" : "Arial",
													"fontsize" : 11.0,
													"id" : "obj-2",
													"maxclass" : "newobj",
													"numinlets" : 1,
													"numoutlets" : 1,
													"outlettype" : [ "" ],
													"patching_rect" : [ 50.0, 99.333336000000003, 52.0, 21.0 ],
													"text" : "deferlow"
												}

											}
, 											{
												"box" : 												{
													"fontname" : "Arial",
													"fontsize" : 11.0,
													"id" : "obj-1",
													"maxclass" : "newobj",
													"numinlets" : 1,
													"numoutlets" : 2,
													"outlettype" : [ "bang", "addbuffer" ],
													"patching_rect" : [ 50.0, 68.333336000000003, 93.0, 21.0 ],
													"text" : "t b addbuffer"
												}

											}
, 											{
												"box" : 												{
													"comment" : "",
													"id" : "obj-15",
													"index" : 1,
													"maxclass" : "inlet",
													"numinlets" : 0,
													"numoutlets" : 1,
													"outlettype" : [ "" ],
													"patching_rect" : [ 50.0, 10.0, 25.0, 25.0 ]
												}

											}
, 											{
												"box" : 												{
													"id" : "obj-23",
													"maxclass" : "newobj",
													"numinlets" : 1,
													"numoutlets" : 1,
													"outlettype" : [ "" ],
													"patching_rect" : [ 124.0, 96.333336000000003, 133.0, 21.0 ],
													"saved_object_attributes" : 													{
														"embed" : 0,
														"externalfiles" : 1,
														"parameter_enable" : 0,
														"parameter_mappable" : 0,
														"resamplefiles" : 0,
														"savegui" : 0,
														"snaprate" : 1000.0,
														"verbose" : 1
													}
,
													"text" : "mubu state_recognition"
												}

											}
 ],
										"lines" : [ 											{
												"patchline" : 												{
													"destination" : [ "obj-2", 0 ],
													"source" : [ "obj-1", 0 ]
												}

											}
, 											{
												"patchline" : 												{
													"destination" : [ "obj-23", 0 ],
													"source" : [ "obj-1", 1 ]
												}

											}
, 											{
												"patchline" : 												{
													"destination" : [ "obj-1", 0 ],
													"source" : [ "obj-15", 0 ]
												}

											}
, 											{
												"patchline" : 												{
													"destination" : [ "obj-3", 0 ],
													"source" : [ "obj-2", 0 ]
												}

											}
, 											{
												"patchline" : 												{
													"destination" : [ "obj-4", 0 ],
													"source" : [ "obj-3", 0 ]
												}

											}
, 											{
												"patchline" : 												{
													"destination" : [ "obj-5", 0 ],
													"source" : [ "obj-4", 0 ]
												}

											}
, 											{
												"patchline" : 												{
													"destination" : [ "obj-7", 0 ],
													"order" : 1,
													"source" : [ "obj-5", 0 ]
												}

											}
, 											{
												"patchline" : 												{
													"destination" : [ "obj-8", 0 ],
													"midpoints" : [ 59.5, 219.0, 246.5, 219.0 ],
													"order" : 0,
													"source" : [ "obj-5", 0 ]
												}

											}
, 											{
												"patchline" : 												{
													"destination" : [ "obj-6", 0 ],
													"source" : [ "obj-7", 0 ]
												}

											}
 ]
									}
,
									"patching_rect" : [ 353.5, 139.0, 72.0, 22.0 ],
									"saved_object_attributes" : 									{
										"description" : "",
										"digest" : "",
										"fontsize" : 11.0,
										"globalpatchername" : "",
										"tags" : ""
									}
,
									"text" : "p addbuffer"
								}

							}
, 							{
								"box" : 								{
									"fontname" : "Arial",
									"fontsize" : 12.0,
									"id" : "obj-8",
									"maxclass" : "message",
									"numinlets" : 2,
									"numoutlets" : 1,
									"outlettype" : [ "" ],
									"patching_rect" : [ 254.5, 139.0, 62.0, 22.0 ],
									"text" : "record $1"
								}

							}
, 							{
								"box" : 								{
									"id" : "obj-4",
									"linecount" : 5,
									"maxclass" : "newobj",
									"numinlets" : 1,
									"numoutlets" : 2,
									"outlettype" : [ "", "" ],
									"patching_rect" : [ 50.0, 263.5, 241.0, 76.0 ],
									"text" : "mubu.record state_recognition mfcc @predef yes @samplerate 20 @matrixcols 12 @info gui \"interface sonogram, autobounds 1\" label 1 @maxsize 240s @progressoutput 3"
								}

							}
, 							{
								"box" : 								{
									"id" : "obj-1",
									"maxclass" : "newobj",
									"numinlets" : 1,
									"numoutlets" : 3,
									"outlettype" : [ "", "float", "" ],
									"patching_rect" : [ 50.0, 100.0, 199.0, 22.0 ],
									"saved_object_attributes" : 									{
										"active" : 1
									}
,
									"text" : "pipo~ mfcc:mvavrg @mvavrg.size 5"
								}

							}
, 							{
								"box" : 								{
									"comment" : "",
									"id" : "obj-60",
									"index" : 1,
									"maxclass" : "inlet",
									"numinlets" : 0,
									"numoutlets" : 1,
									"outlettype" : [ "signal" ],
									"patching_rect" : [ 50.0, 40.0, 30.0, 30.0 ]
								}

							}
, 							{
								"box" : 								{
									"comment" : "",
									"id" : "obj-61",
									"index" : 2,
									"maxclass" : "inlet",
									"numinlets" : 0,
									"numoutlets" : 1,
									"outlettype" : [ "" ],
									"patching_rect" : [ 254.5, 40.0, 30.0, 30.0 ]
								}

							}
, 							{
								"box" : 								{
									"comment" : "",
									"id" : "obj-64",
									"index" : 3,
									"maxclass" : "inlet",
									"numinlets" : 0,
									"numoutlets" : 1,
									"outlettype" : [ "" ],
									"patching_rect" : [ 353.5, 40.0, 30.0, 30.0 ]
								}

							}
, 							{
								"box" : 								{
									"comment" : "",
									"id" : "obj-65",
									"index" : 4,
									"maxclass" : "inlet",
									"numinlets" : 0,
									"numoutlets" : 1,
									"outlettype" : [ "" ],
									"patching_rect" : [ 493.0, 40.0, 30.0, 30.0 ]
								}

							}
, 							{
								"box" : 								{
									"comment" : "",
									"id" : "obj-66",
									"index" : 5,
									"maxclass" : "inlet",
									"numinlets" : 0,
									"numoutlets" : 1,
									"outlettype" : [ "" ],
									"patching_rect" : [ 558.0, 40.0, 30.0, 30.0 ]
								}

							}
, 							{
								"box" : 								{
									"comment" : "",
									"id" : "obj-67",
									"index" : 1,
									"maxclass" : "outlet",
									"numinlets" : 1,
									"numoutlets" : 0,
									"patching_rect" : [ 50.0, 399.5, 30.0, 30.0 ]
								}

							}
, 							{
								"box" : 								{
									"comment" : "",
									"id" : "obj-68",
									"index" : 2,
									"maxclass" : "outlet",
									"numinlets" : 1,
									"numoutlets" : 0,
									"patching_rect" : [ 304.0, 399.5, 30.0, 30.0 ]
								}

							}
, 							{
								"box" : 								{
									"comment" : "",
									"id" : "obj-70",
									"index" : 3,
									"maxclass" : "outlet",
									"numinlets" : 1,
									"numoutlets" : 0,
									"patching_rect" : [ 422.0, 399.5, 30.0, 30.0 ]
								}

							}
 ],
						"lines" : [ 							{
								"patchline" : 								{
									"destination" : [ "obj-4", 0 ],
									"source" : [ "obj-1", 0 ]
								}

							}
, 							{
								"patchline" : 								{
									"destination" : [ "obj-10", 0 ],
									"midpoints" : [ 363.0, 204.0, 567.5, 204.0 ],
									"order" : 0,
									"source" : [ "obj-26", 0 ]
								}

							}
, 							{
								"patchline" : 								{
									"destination" : [ "obj-4", 0 ],
									"midpoints" : [ 363.0, 250.0, 59.5, 250.0 ],
									"order" : 3,
									"source" : [ "obj-26", 0 ]
								}

							}
, 							{
								"patchline" : 								{
									"destination" : [ "obj-51", 0 ],
									"midpoints" : [ 363.0, 250.0, 313.5, 250.0 ],
									"order" : 2,
									"source" : [ "obj-26", 0 ]
								}

							}
, 							{
								"patchline" : 								{
									"destination" : [ "obj-52", 0 ],
									"midpoints" : [ 416.0, 250.0, 431.5, 250.0 ],
									"source" : [ "obj-26", 1 ]
								}

							}
, 							{
								"patchline" : 								{
									"destination" : [ "obj-52", 0 ],
									"midpoints" : [ 363.0, 250.0, 431.5, 250.0 ],
									"order" : 1,
									"source" : [ "obj-26", 0 ]
								}

							}
, 							{
								"patchline" : 								{
									"destination" : [ "obj-67", 0 ],
									"source" : [ "obj-4", 0 ]
								}

							}
, 							{
								"patchline" : 								{
									"destination" : [ "obj-68", 0 ],
									"source" : [ "obj-51", 0 ]
								}

							}
, 							{
								"patchline" : 								{
									"destination" : [ "obj-70", 0 ],
									"source" : [ "obj-52", 0 ]
								}

							}
, 							{
								"patchline" : 								{
									"destination" : [ "obj-10", 0 ],
									"source" : [ "obj-55", 2 ]
								}

							}
, 							{
								"patchline" : 								{
									"destination" : [ "obj-51", 0 ],
									"midpoints" : [ 513.0, 190.0, 313.5, 190.0 ],
									"source" : [ "obj-55", 1 ]
								}

							}
, 							{
								"patchline" : 								{
									"destination" : [ "obj-52", 0 ],
									"midpoints" : [ 502.5, 250.0, 431.5, 250.0 ],
									"source" : [ "obj-55", 0 ]
								}

							}
, 							{
								"patchline" : 								{
									"destination" : [ "obj-1", 0 ],
									"source" : [ "obj-60", 0 ]
								}

							}
, 							{
								"patchline" : 								{
									"destination" : [ "obj-8", 0 ],
									"source" : [ "obj-61", 0 ]
								}

							}
, 							{
								"patchline" : 								{
									"destination" : [ "obj-26", 0 ],
									"source" : [ "obj-64", 0 ]
								}

							}
, 							{
								"patchline" : 								{
									"destination" : [ "obj-55", 0 ],
									"source" : [ "obj-65", 0 ]
								}

							}
, 							{
								"patchline" : 								{
									"destination" : [ "obj-10", 0 ],
									"source" : [ "obj-66", 0 ]
								}

							}
, 							{
								"patchline" : 								{
									"destination" : [ "obj-4", 0 ],
									"midpoints" : [ 264.0, 250.0, 59.5, 250.0 ],
									"source" : [ "obj-8", 0 ]
								}

							}
 ]
					}
,
					"patching_rect" : [ 5.0, 116.0, 61.0, 22.0 ],
					"saved_object_attributes" : 					{
						"description" : "",
						"digest" : "",
						"globalpatchername" : "",
						"tags" : ""
					}
,
					"text" : "p train"
				}

			}
, 			{
				"box" : 				{
					"id" : "obj-19",
					"maxclass" : "message",
					"numinlets" : 2,
					"numoutlets" : 1,
					"outlettype" : [ "" ],
					"patching_rect" : [ 389.0, 42.0, 45.0, 22.0 ],
					"text" : "readall"
				}

			}
, 			{
				"box" : 				{
					"id" : "obj-11",
					"maxclass" : "message",
					"numinlets" : 2,
					"numoutlets" : 1,
					"outlettype" : [ "" ],
					"patching_rect" : [ 338.0, 42.0, 46.0, 22.0 ],
					"text" : "writeall"
				}

			}
, 			{
				"box" : 				{
					"ghostbar" : 50,
					"id" : "obj-62",
					"maxclass" : "multislider",
					"numinlets" : 1,
					"numoutlets" : 2,
					"orientation" : 0,
					"outlettype" : [ "", "" ],
					"parameter_enable" : 0,
					"patching_rect" : [ 5.0, 183.0, 238.0, 19.0 ],
					"setminmax" : [ 0.0, 1.0 ]
				}

			}
, 			{
				"box" : 				{
					"id" : "obj-54",
					"maxclass" : "comment",
					"numinlets" : 1,
					"numoutlets" : 0,
					"patching_rect" : [ 179.0, 159.0, 96.0, 20.0 ],
					"text" : "active buffer is 3"
				}

			}
, 			{
				"box" : 				{
					"id" : "obj-49",
					"maxclass" : "comment",
					"numinlets" : 1,
					"numoutlets" : 0,
					"patching_rect" : [ 92.0, 159.0, 65.0, 20.0 ],
					"text" : "3 buffers."
				}

			}
, 			{
				"box" : 				{
					"id" : "obj-31",
					"maxclass" : "ezdac~",
					"numinlets" : 2,
					"numoutlets" : 0,
					"patching_rect" : [ 714.315780401229858, 319.0, 45.0, 45.0 ]
				}

			}
, 			{
				"box" : 				{
					"id" : "obj-23",
					"maxclass" : "newobj",
					"numinlets" : 1,
					"numoutlets" : 0,
					"patching_rect" : [ 638.315780401229858, 319.0, 65.0, 22.0 ],
					"text" : "send~ rt.in"
				}

			}
, 			{
				"box" : 				{
					"id" : "obj-2",
					"maxclass" : "newobj",
					"numinlets" : 1,
					"numoutlets" : 1,
					"outlettype" : [ "" ],
					"patching_rect" : [ 330.0, 249.5, 70.0, 22.0 ],
					"text" : "loadmess 0"
				}

			}
, 			{
				"box" : 				{
					"bgcolor" : [ 0.3, 0.3, 0.3, 1.0 ],
					"bgoncolor" : [ 0.55, 0.55, 0.55, 1.0 ],
					"fontsize" : 12.0,
					"id" : "obj-18",
					"legacytextcolor" : 1,
					"maxclass" : "textbutton",
					"numinlets" : 1,
					"numoutlets" : 3,
					"outlettype" : [ "", "", "int" ],
					"parameter_enable" : 0,
					"patching_rect" : [ 212.25, 294.0, 115.0, 30.0 ],
					"text" : "train",
					"textcolor" : [ 0.88, 0.88, 0.88, 1.0 ],
					"texton" : "stop",
					"textoncolor" : [ 1.0, 1.0, 1.0, 1.0 ],
					"textovercolor" : [ 0.439216, 0.74902, 0.254902, 1.0 ],
					"usebgoncolor" : 1,
					"usetextovercolor" : 1
				}

			}
, 			{
				"box" : 				{
					"bgcolor" : [ 0.3, 0.3, 0.3, 1.0 ],
					"bgoncolor" : [ 0.030743, 0.650242, 0.000396, 1.0 ],
					"fontsize" : 12.0,
					"id" : "obj-3",
					"legacytextcolor" : 1,
					"maxclass" : "textbutton",
					"mode" : 1,
					"numinlets" : 1,
					"numoutlets" : 3,
					"outlettype" : [ "", "", "int" ],
					"parameter_enable" : 0,
					"patching_rect" : [ 330.0, 294.0, 115.0, 30.0 ],
					"text" : "play",
					"textcolor" : [ 0.88, 0.88, 0.88, 1.0 ],
					"texton" : "stop",
					"textoncolor" : [ 1.0, 1.0, 1.0, 1.0 ],
					"textovercolor" : [ 0.439216, 0.74902, 0.254902, 1.0 ],
					"usebgoncolor" : 1,
					"usetextovercolor" : 1
				}

			}
, 			{
				"box" : 				{
					"fontname" : "Arial",
					"fontsize" : 11.0,
					"id" : "obj-39",
					"maxclass" : "message",
					"numinlets" : 2,
					"numoutlets" : 1,
					"outlettype" : [ "" ],
					"patching_rect" : [ 330.0, 327.0, 46.0, 21.0 ],
					"text" : "play $1"
				}

			}
, 			{
				"box" : 				{
					"fontname" : "Arial",
					"fontsize" : 14.0,
					"id" : "obj-36",
					"maxclass" : "message",
					"numinlets" : 2,
					"numoutlets" : 1,
					"outlettype" : [ "" ],
					"patching_rect" : [ 413.0, 418.0, 58.0, 24.0 ],
					"text" : "1"
				}

			}
, 			{
				"box" : 				{
					"fontname" : "Arial",
					"fontsize" : 11.0,
					"id" : "obj-48",
					"maxclass" : "comment",
					"numinlets" : 1,
					"numoutlets" : 0,
					"patching_rect" : [ 150.657894134521484, 451.5, 84.0, 19.0 ],
					"text" : "log-likelihoods"
				}

			}
, 			{
				"box" : 				{
					"bgcolor" : [ 1.0, 1.0, 1.0, 1.0 ],
					"candicane2" : [ 0.0381, 0.27339, 0.458347, 1.0 ],
					"candicane3" : [ 0.13376, 0.761021, 0.602263, 1.0 ],
					"candicane4" : [ 0.218567, 0.227904, 0.231934, 1.0 ],
					"candicane5" : [ 0.909804, 0.423529, 0.0, 1.0 ],
					"candicane6" : [ 0.399856, 0.571895, 0.668562, 1.0 ],
					"candycane" : 8,
					"id" : "obj-56",
					"maxclass" : "multislider",
					"numinlets" : 1,
					"numoutlets" : 2,
					"outlettype" : [ "", "" ],
					"parameter_enable" : 0,
					"patching_rect" : [ 150.657894134521484, 451.5, 133.0, 114.0 ],
					"setminmax" : [ -60.0, 0.0 ],
					"setstyle" : 1,
					"size" : 3,
					"slidercolor" : [ 0.733398, 0.0, 0.121332, 1.0 ]
				}

			}
, 			{
				"box" : 				{
					"fontname" : "Arial",
					"fontsize" : 11.0,
					"id" : "obj-35",
					"maxclass" : "comment",
					"numinlets" : 1,
					"numoutlets" : 0,
					"patching_rect" : [ 5.0, 451.5, 84.0, 19.0 ],
					"text" : "likelihoods"
				}

			}
, 			{
				"box" : 				{
					"fontname" : "Arial",
					"fontsize" : 12.0,
					"id" : "obj-45",
					"maxclass" : "newobj",
					"numinlets" : 3,
					"numoutlets" : 3,
					"outlettype" : [ "", "", "" ],
					"patching_rect" : [ 5.0, 418.0, 310.315788269042969, 22.0 ],
					"text" : "route likelihood loglikelihood"
				}

			}
, 			{
				"box" : 				{
					"bgcolor" : [ 1.0, 1.0, 1.0, 1.0 ],
					"candicane2" : [ 0.0381, 0.27339, 0.458347, 1.0 ],
					"candicane3" : [ 0.13376, 0.761021, 0.602263, 1.0 ],
					"candicane4" : [ 0.218567, 0.227904, 0.231934, 1.0 ],
					"candicane5" : [ 0.909804, 0.423529, 0.0, 1.0 ],
					"candicane6" : [ 0.399856, 0.571895, 0.668562, 1.0 ],
					"candycane" : 8,
					"id" : "obj-42",
					"maxclass" : "multislider",
					"numinlets" : 1,
					"numoutlets" : 2,
					"outlettype" : [ "", "" ],
					"parameter_enable" : 0,
					"patching_rect" : [ 5.0, 451.5, 133.0, 114.0 ],
					"setminmax" : [ 0.0, 1.0 ],
					"setstyle" : 1,
					"size" : 3,
					"slidercolor" : [ 0.733398, 0.0, 0.121332, 1.0 ]
				}

			}
, 			{
				"box" : 				{
					"id" : "obj-17",
					"maxclass" : "newobj",
					"numinlets" : 1,
					"numoutlets" : 3,
					"outlettype" : [ "", "float", "" ],
					"patching_rect" : [ 5.0, 294.0, 199.0, 22.0 ],
					"saved_object_attributes" : 					{
						"active" : 1
					}
,
					"text" : "pipo~ mfcc:mvavrg @mvavrg.size 5"
				}

			}
, 			{
				"box" : 				{
					"id" : "obj-16",
					"maxclass" : "newobj",
					"numinlets" : 0,
					"numoutlets" : 1,
					"outlettype" : [ "signal" ],
					"patching_rect" : [ 5.0, 249.5, 43.0, 22.0 ],
					"text" : "r~ rt.in"
				}

			}
, 			{
				"box" : 				{
					"color" : [ 0.5, 0.5, 0.5, 1.0 ],
					"fontname" : "Arial",
					"fontsize" : 12.0,
					"id" : "obj-28",
					"maxclass" : "newobj",
					"numinlets" : 1,
					"numoutlets" : 5,
					"outlettype" : [ "", "", "", "", "" ],
					"patching_rect" : [ 5.0, 380.0, 615.0, 22.0 ],
					"text" : "mubu.gmm state_recognition @trackid mfcc @gaussians 2 @varianceoffset 1. 0.1 @likelihoodwindow 30 @play 0"
				}

			}
, 			{
				"box" : 				{
					"bgcolor" : [ 0.3, 0.3, 0.3, 1.0 ],
					"bgoncolor" : [ 0.5, 0.5, 0.5, 1.0 ],
					"fontsize" : 12.0,
					"id" : "obj-29",
					"legacytextcolor" : 1,
					"maxclass" : "textbutton",
					"numinlets" : 1,
					"numoutlets" : 3,
					"outlettype" : [ "", "", "int" ],
					"parameter_enable" : 0,
					"patching_rect" : [ 239.0, 42.0, 93.0, 25.0 ],
					"text" : "clearall",
					"textcolor" : [ 0.88, 0.88, 0.88, 1.0 ],
					"texton" : "stop",
					"textoncolor" : [ 1.0, 1.0, 1.0, 1.0 ],
					"textovercolor" : [ 0.439216, 0.74902, 0.254902, 1.0 ],
					"usebgoncolor" : 1,
					"usetextovercolor" : 1
				}

			}
, 			{
				"box" : 				{
					"bgcolor" : [ 0.3, 0.3, 0.3, 1.0 ],
					"bgoncolor" : [ 0.5, 0.5, 0.5, 1.0 ],
					"fontsize" : 12.0,
					"id" : "obj-7",
					"legacytextcolor" : 1,
					"maxclass" : "textbutton",
					"numinlets" : 1,
					"numoutlets" : 3,
					"outlettype" : [ "", "", "int" ],
					"parameter_enable" : 0,
					"patching_rect" : [ 144.0, 42.0, 93.0, 25.0 ],
					"text" : "add buffer",
					"textcolor" : [ 0.88, 0.88, 0.88, 1.0 ],
					"texton" : "stop",
					"textoncolor" : [ 1.0, 1.0, 1.0, 1.0 ],
					"textovercolor" : [ 0.439216, 0.74902, 0.254902, 1.0 ],
					"usebgoncolor" : 1,
					"usetextovercolor" : 1
				}

			}
, 			{
				"box" : 				{
					"bgcolor" : [ 0.3, 0.3, 0.3, 1.0 ],
					"bgoncolor" : [ 0.5, 0.5, 0.5, 1.0 ],
					"fontsize" : 12.0,
					"id" : "obj-9",
					"legacytextcolor" : 1,
					"maxclass" : "textbutton",
					"mode" : 1,
					"numinlets" : 1,
					"numoutlets" : 3,
					"outlettype" : [ "", "", "int" ],
					"parameter_enable" : 0,
					"patching_rect" : [ 48.5, 42.0, 93.0, 25.0 ],
					"text" : "record",
					"textcolor" : [ 0.88, 0.88, 0.88, 1.0 ],
					"texton" : "stop",
					"textoncolor" : [ 1.0, 1.0, 1.0, 1.0 ],
					"textovercolor" : [ 0.439216, 0.74902, 0.254902, 1.0 ],
					"usebgoncolor" : 1,
					"usetextovercolor" : 1
				}

			}
, 			{
				"box" : 				{
					"id" : "obj-6",
					"maxclass" : "newobj",
					"numinlets" : 0,
					"numoutlets" : 1,
					"outlettype" : [ "signal" ],
					"patching_rect" : [ 5.0, 7.0, 43.0, 22.0 ],
					"text" : "r~ rt.in"
				}

			}
 ],
		"lines" : [ 			{
				"patchline" : 				{
					"destination" : [ "obj-4", 1 ],
					"midpoints" : [ 644.5, 405.0, 693.5, 405.0 ],
					"order" : 0,
					"source" : [ "obj-1", 0 ]
				}

			}
, 			{
				"patchline" : 				{
					"destination" : [ "obj-4", 0 ],
					"midpoints" : [ 644.5, 405.0, 644.5, 405.0 ],
					"order" : 1,
					"source" : [ "obj-1", 0 ]
				}

			}
, 			{
				"patchline" : 				{
					"destination" : [ "obj-73", 4 ],
					"midpoints" : [ 347.5, 102.0, 56.5, 102.0 ],
					"source" : [ "obj-11", 0 ]
				}

			}
, 			{
				"patchline" : 				{
					"destination" : [ "obj-17", 0 ],
					"source" : [ "obj-16", 0 ]
				}

			}
, 			{
				"patchline" : 				{
					"destination" : [ "obj-3", 0 ],
					"source" : [ "obj-169", 0 ]
				}

			}
, 			{
				"patchline" : 				{
					"destination" : [ "obj-28", 0 ],
					"source" : [ "obj-17", 0 ]
				}

			}
, 			{
				"patchline" : 				{
					"destination" : [ "obj-28", 0 ],
					"midpoints" : [ 269.75, 366.0, 14.5, 366.0 ],
					"source" : [ "obj-18", 1 ]
				}

			}
, 			{
				"patchline" : 				{
					"destination" : [ "obj-73", 4 ],
					"midpoints" : [ 398.5, 102.0, 56.5, 102.0 ],
					"source" : [ "obj-19", 0 ]
				}

			}
, 			{
				"patchline" : 				{
					"destination" : [ "obj-3", 0 ],
					"source" : [ "obj-2", 0 ]
				}

			}
, 			{
				"patchline" : 				{
					"destination" : [ "obj-36", 1 ],
					"source" : [ "obj-28", 3 ]
				}

			}
, 			{
				"patchline" : 				{
					"destination" : [ "obj-45", 0 ],
					"source" : [ "obj-28", 0 ]
				}

			}
, 			{
				"patchline" : 				{
					"destination" : [ "obj-73", 3 ],
					"midpoints" : [ 285.5, 102.0, 46.0, 102.0 ],
					"source" : [ "obj-29", 1 ]
				}

			}
, 			{
				"patchline" : 				{
					"destination" : [ "obj-39", 0 ],
					"source" : [ "obj-3", 0 ]
				}

			}
, 			{
				"patchline" : 				{
					"destination" : [ "obj-23", 0 ],
					"midpoints" : [ 648.815780401229858, 285.0, 647.815780401229858, 285.0 ],
					"order" : 2,
					"source" : [ "obj-32", 0 ]
				}

			}
, 			{
				"patchline" : 				{
					"destination" : [ "obj-31", 1 ],
					"midpoints" : [ 648.815780401229858, 306.0, 749.815780401229858, 306.0 ],
					"order" : 0,
					"source" : [ "obj-32", 0 ]
				}

			}
, 			{
				"patchline" : 				{
					"destination" : [ "obj-31", 0 ],
					"midpoints" : [ 648.815780401229858, 306.0, 723.815780401229858, 306.0 ],
					"order" : 1,
					"source" : [ "obj-32", 0 ]
				}

			}
, 			{
				"patchline" : 				{
					"destination" : [ "obj-28", 0 ],
					"midpoints" : [ 339.5, 366.0, 14.5, 366.0 ],
					"source" : [ "obj-39", 0 ]
				}

			}
, 			{
				"patchline" : 				{
					"destination" : [ "obj-42", 0 ],
					"source" : [ "obj-45", 0 ]
				}

			}
, 			{
				"patchline" : 				{
					"destination" : [ "obj-56", 0 ],
					"source" : [ "obj-45", 1 ]
				}

			}
, 			{
				"patchline" : 				{
					"destination" : [ "obj-73", 0 ],
					"midpoints" : [ 14.5, 30.0, 14.5, 30.0 ],
					"source" : [ "obj-6", 0 ]
				}

			}
, 			{
				"patchline" : 				{
					"destination" : [ "obj-73", 2 ],
					"midpoints" : [ 153.5, 102.0, 35.5, 102.0 ],
					"source" : [ "obj-7", 0 ]
				}

			}
, 			{
				"patchline" : 				{
					"destination" : [ "obj-49", 0 ],
					"midpoints" : [ 35.5, 153.0, 101.5, 153.0 ],
					"source" : [ "obj-73", 1 ]
				}

			}
, 			{
				"patchline" : 				{
					"destination" : [ "obj-54", 0 ],
					"midpoints" : [ 56.5, 141.0, 188.5, 141.0 ],
					"source" : [ "obj-73", 2 ]
				}

			}
, 			{
				"patchline" : 				{
					"destination" : [ "obj-62", 0 ],
					"midpoints" : [ 14.5, 141.0, 14.5, 141.0 ],
					"source" : [ "obj-73", 0 ]
				}

			}
, 			{
				"patchline" : 				{
					"destination" : [ "obj-73", 1 ],
					"midpoints" : [ 58.0, 102.0, 25.0, 102.0 ],
					"source" : [ "obj-9", 0 ]
				}

			}
 ],
		"dependency_cache" : [ 			{
				"name" : "r~.maxpat",
				"bootpath" : "~/Documents/Max 8/Library",
				"patcherrelativepath" : "../../../../../Documents/Max 8/Library",
				"type" : "JSON",
				"implicit" : 1
			}
, 			{
				"name" : "Paperclip-glued-01.wav",
				"bootpath" : "~/Cloud/Projects/RefractedTouch/other/concatenative_synth",
				"patcherrelativepath" : "../../../../../Cloud/Projects/RefractedTouch/other/concatenative_synth",
				"type" : "WAVE",
				"implicit" : 1
			}
, 			{
				"name" : "Paperclip-glued-02.wav",
				"bootpath" : "~/Cloud/Projects/RefractedTouch/other/concatenative_synth",
				"patcherrelativepath" : "../../../../../Cloud/Projects/RefractedTouch/other/concatenative_synth",
				"type" : "WAVE",
				"implicit" : 1
			}
, 			{
				"name" : "Paperclip-glued-03.wav",
				"bootpath" : "~/Cloud/Projects/RefractedTouch/other/concatenative_synth",
				"patcherrelativepath" : "../../../../../Cloud/Projects/RefractedTouch/other/concatenative_synth",
				"type" : "WAVE",
				"implicit" : 1
			}
, 			{
				"name" : "Paperclip-glued-04.wav",
				"bootpath" : "~/Cloud/Projects/RefractedTouch/other/concatenative_synth",
				"patcherrelativepath" : "../../../../../Cloud/Projects/RefractedTouch/other/concatenative_synth",
				"type" : "WAVE",
				"implicit" : 1
			}
, 			{
				"name" : "Paperclip-glued-05.wav",
				"bootpath" : "~/Cloud/Projects/RefractedTouch/other/concatenative_synth",
				"patcherrelativepath" : "../../../../../Cloud/Projects/RefractedTouch/other/concatenative_synth",
				"type" : "WAVE",
				"implicit" : 1
			}
, 			{
				"name" : "Paperclip-glued-06.wav",
				"bootpath" : "~/Cloud/Projects/RefractedTouch/other/concatenative_synth",
				"patcherrelativepath" : "../../../../../Cloud/Projects/RefractedTouch/other/concatenative_synth",
				"type" : "WAVE",
				"implicit" : 1
			}
, 			{
				"name" : "Paperclip-glued.wav",
				"bootpath" : "~/Cloud/Projects/RefractedTouch/other/concatenative_synth",
				"patcherrelativepath" : "../../../../../Cloud/Projects/RefractedTouch/other/concatenative_synth",
				"type" : "WAVE",
				"implicit" : 1
			}
, 			{
				"name" : "Paperclip.wav",
				"bootpath" : "~/Cloud/Projects/RefractedTouch/other/concatenative_synth",
				"patcherrelativepath" : "../../../../../Cloud/Projects/RefractedTouch/other/concatenative_synth",
				"type" : "WAVE",
				"implicit" : 1
			}
, 			{
				"name" : "Paperclips_2-glued-01.wav",
				"bootpath" : "~/Cloud/Projects/RefractedTouch/other/concatenative_synth",
				"patcherrelativepath" : "../../../../../Cloud/Projects/RefractedTouch/other/concatenative_synth",
				"type" : "WAVE",
				"implicit" : 1
			}
, 			{
				"name" : "Paperclips_2-glued.wav",
				"bootpath" : "~/Cloud/Projects/RefractedTouch/other/concatenative_synth",
				"patcherrelativepath" : "../../../../../Cloud/Projects/RefractedTouch/other/concatenative_synth",
				"type" : "WAVE",
				"implicit" : 1
			}
, 			{
				"name" : "Paperclips_2.wav",
				"bootpath" : "~/Cloud/Projects/RefractedTouch/other/concatenative_synth",
				"patcherrelativepath" : "../../../../../Cloud/Projects/RefractedTouch/other/concatenative_synth",
				"type" : "WAVE",
				"implicit" : 1
			}
, 			{
				"name" : "Pick_Behind_Bridge_2.wav",
				"bootpath" : "~/Cloud/Projects/RefractedTouch/other/concatenative_synth",
				"patcherrelativepath" : "../../../../../Cloud/Projects/RefractedTouch/other/concatenative_synth",
				"type" : "WAVE",
				"implicit" : 1
			}
, 			{
				"name" : "Pick_Behind_Bridge.wav",
				"bootpath" : "~/Cloud/Projects/RefractedTouch/other/concatenative_synth",
				"patcherrelativepath" : "../../../../../Cloud/Projects/RefractedTouch/other/concatenative_synth",
				"type" : "WAVE",
				"implicit" : 1
			}
, 			{
				"name" : "Slide_Scrape.wav",
				"bootpath" : "~/Cloud/Projects/RefractedTouch/other/concatenative_synth",
				"patcherrelativepath" : "../../../../../Cloud/Projects/RefractedTouch/other/concatenative_synth",
				"type" : "WAVE",
				"implicit" : 1
			}
, 			{
				"name" : "Slide_tap.wav",
				"bootpath" : "~/Cloud/Projects/RefractedTouch/other/concatenative_synth",
				"patcherrelativepath" : "../../../../../Cloud/Projects/RefractedTouch/other/concatenative_synth",
				"type" : "WAVE",
				"implicit" : 1
			}
, 			{
				"name" : "Various_tapping-glued-01.wav",
				"bootpath" : "~/Cloud/Projects/RefractedTouch/other/concatenative_synth",
				"patcherrelativepath" : "../../../../../Cloud/Projects/RefractedTouch/other/concatenative_synth",
				"type" : "WAVE",
				"implicit" : 1
			}
, 			{
				"name" : "Various_tapping-glued.wav",
				"bootpath" : "~/Cloud/Projects/RefractedTouch/other/concatenative_synth",
				"patcherrelativepath" : "../../../../../Cloud/Projects/RefractedTouch/other/concatenative_synth",
				"type" : "WAVE",
				"implicit" : 1
			}
, 			{
				"name" : "Various_tapping.wav",
				"bootpath" : "~/Cloud/Projects/RefractedTouch/other/concatenative_synth",
				"patcherrelativepath" : "../../../../../Cloud/Projects/RefractedTouch/other/concatenative_synth",
				"type" : "WAVE",
				"implicit" : 1
			}
, 			{
				"name" : "ZigZag.wav",
				"bootpath" : "~/Cloud/Projects/RefractedTouch/other/concatenative_synth",
				"patcherrelativepath" : "../../../../../Cloud/Projects/RefractedTouch/other/concatenative_synth",
				"type" : "WAVE",
				"implicit" : 1
			}
, 			{
				"name" : "mubu.gmm.mxo",
				"type" : "iLaX"
			}
, 			{
				"name" : "pipo~.mxo",
				"type" : "iLaX"
			}
, 			{
				"name" : "mubu.mxo",
				"type" : "iLaX"
			}
, 			{
				"name" : "mubu.mxo",
				"type" : "iLaX"
			}
 ],
		"autosave" : 0,
		"styles" : [ 			{
				"name" : "AudioStatus_Menu",
				"default" : 				{
					"bgfillcolor" : 					{
						"type" : "color",
						"color" : [ 0.294118, 0.313726, 0.337255, 1 ],
						"color1" : [ 0.454902, 0.462745, 0.482353, 0.0 ],
						"color2" : [ 0.290196, 0.309804, 0.301961, 1.0 ],
						"angle" : 270.0,
						"proportion" : 0.39,
						"autogradient" : 0
					}

				}
,
				"parentstyle" : "",
				"multi" : 0
			}
, 			{
				"name" : "Luca",
				"default" : 				{
					"bgfillcolor" : 					{
						"type" : "gradient",
						"color" : [ 0.290196, 0.309804, 0.301961, 1.0 ],
						"color1" : [ 0.862745, 0.870588, 0.878431, 1.0 ],
						"color2" : [ 0.65098, 0.666667, 0.662745, 1.0 ],
						"angle" : 270.0,
						"proportion" : 0.39,
						"autogradient" : 0
					}
,
					"fontname" : [ "Open Sans Semibold" ],
					"bgcolor" : [ 0.904179, 0.895477, 0.842975, 0.56 ],
					"accentcolor" : [ 0.32549, 0.345098, 0.372549, 1.0 ],
					"elementcolor" : [ 0.786675, 0.801885, 0.845022, 1.0 ],
					"color" : [ 0.475135, 0.293895, 0.251069, 1.0 ],
					"selectioncolor" : [ 0.720698, 0.16723, 0.080014, 1.0 ],
					"textcolor_inverse" : [ 0.239216, 0.254902, 0.278431, 1.0 ]
				}
,
				"parentstyle" : "",
				"multi" : 0
			}
, 			{
				"name" : "ksliderWhite",
				"default" : 				{
					"color" : [ 1.0, 1.0, 1.0, 1.0 ]
				}
,
				"parentstyle" : "",
				"multi" : 0
			}
, 			{
				"name" : "max6box",
				"default" : 				{
					"bgcolor" : [ 1.0, 1.0, 1.0, 0.5 ],
					"accentcolor" : [ 0.8, 0.839216, 0.709804, 1.0 ],
					"textcolor_inverse" : [ 0.0, 0.0, 0.0, 1.0 ]
				}
,
				"parentstyle" : "",
				"multi" : 0
			}
, 			{
				"name" : "max6inlet",
				"default" : 				{
					"color" : [ 0.423529, 0.372549, 0.27451, 1.0 ]
				}
,
				"parentstyle" : "",
				"multi" : 0
			}
, 			{
				"name" : "max6message",
				"default" : 				{
					"bgfillcolor" : 					{
						"type" : "gradient",
						"color1" : [ 0.866667, 0.866667, 0.866667, 1.0 ],
						"color2" : [ 0.788235, 0.788235, 0.788235, 1.0 ],
						"color" : [ 0.290196, 0.309804, 0.301961, 1.0 ],
						"angle" : 270.0,
						"proportion" : 0.39,
						"autogradient" : 0
					}
,
					"textcolor_inverse" : [ 0.0, 0.0, 0.0, 1.0 ]
				}
,
				"parentstyle" : "max6box",
				"multi" : 0
			}
, 			{
				"name" : "max6outlet",
				"default" : 				{
					"color" : [ 0.0, 0.454902, 0.498039, 1.0 ]
				}
,
				"parentstyle" : "",
				"multi" : 0
			}
, 			{
				"name" : "newobjBlue-1",
				"default" : 				{
					"accentcolor" : [ 0.317647, 0.654902, 0.976471, 1.0 ]
				}
,
				"parentstyle" : "",
				"multi" : 0
			}
, 			{
				"name" : "newobjBrown-1",
				"default" : 				{
					"accentcolor" : [ 0.654902, 0.572549, 0.376471, 1.0 ]
				}
,
				"parentstyle" : "",
				"multi" : 0
			}
, 			{
				"name" : "newobjCyan-1",
				"default" : 				{
					"accentcolor" : [ 0.029546, 0.773327, 0.821113, 1.0 ]
				}
,
				"parentstyle" : "",
				"multi" : 0
			}
, 			{
				"name" : "newobjGreen-1",
				"default" : 				{
					"accentcolor" : [ 0.0, 0.533333, 0.168627, 1.0 ]
				}
,
				"parentstyle" : "",
				"multi" : 0
			}
, 			{
				"name" : "newobjYellow-1",
				"default" : 				{
					"accentcolor" : [ 0.82517, 0.78181, 0.059545, 1.0 ],
					"fontsize" : [ 12.059008 ]
				}
,
				"parentstyle" : "",
				"multi" : 0
			}
, 			{
				"name" : "numberGold-1",
				"default" : 				{
					"accentcolor" : [ 0.764706, 0.592157, 0.101961, 1.0 ]
				}
,
				"parentstyle" : "",
				"multi" : 0
			}
, 			{
				"name" : "rsliderGold",
				"default" : 				{
					"bgcolor" : [ 0.764706, 0.592157, 0.101961, 1.0 ],
					"color" : [ 0.646639, 0.821777, 0.854593, 1.0 ]
				}
,
				"parentstyle" : "",
				"multi" : 0
			}
 ]
	}

}
